<svg width="351" height="201" viewBox="0 0 351 201" fill="none" xmlns="http://www.w3.org/2000/svg">
<g clip-path="url(#clip0_13_268)">
<rect x="39" width="273" height="254" rx="100" fill="#D9D9D9"/>
<path fill-rule="evenodd" clip-rule="evenodd" d="M287.329 133.435C290.201 139.108 285.386 145 279.028 145C274.733 145 271.058 142.155 268.572 138.652C263.914 132.087 256.252 127.803 247.59 127.803C238.927 127.803 231.265 132.087 226.607 138.652C224.121 142.155 220.446 145 216.151 145C209.793 145 204.978 139.108 207.85 133.435C215.19 118.938 230.229 109 247.59 109C264.95 109 279.989 118.938 287.329 133.435Z" fill="#2B2323"/>
<path fill-rule="evenodd" clip-rule="evenodd" d="M141.329 133.435C144.201 139.108 139.386 145 133.028 145C128.733 145 125.058 142.155 122.572 138.652C117.914 132.087 110.252 127.803 101.59 127.803C92.9271 127.803 85.2652 132.087 80.6067 138.652C78.1208 142.155 74.4463 145 70.1507 145C63.7926 145 58.9783 139.108 61.8501 133.435C69.1898 118.938 84.2291 109 101.59 109C118.95 109 133.989 118.938 141.329 133.435Z" fill="#2B2323"/>
<rect x="151" y="151" width="50" height="22" rx="11" fill="#2B2323"/>
<path d="M112.848 81.8456C113.698 79.5789 116.105 78.3024 118.458 78.8708L153.303 87.2862C158.358 88.5072 161.298 93.7804 159.678 98.7226C157.981 103.9 152.076 106.356 147.208 103.909L115.182 87.8083C112.995 86.7089 111.988 84.1376 112.848 81.8456Z" fill="#4F4949"/>
<path d="M240.679 84.0818C241.452 86.3759 240.392 88.8862 238.209 89.9322L205.881 105.421C201.191 107.668 195.581 105.437 193.715 100.583C191.759 95.4976 194.785 89.8635 200.105 88.6854L235.102 80.934C237.492 80.4047 239.897 81.7621 240.679 84.0818Z" fill="#4F4949"/>
<rect y="18" width="81" height="56" rx="28" fill="#D9D9D9"/>
<rect x="261" y="18" width="90" height="56" rx="28" fill="#D9D9D9"/>
</g>
<defs>
<clipPath id="clip0_13_268">
<rect width="351" height="201" fill="white"/>
</clipPath>
</defs>
</svg>
