<svg xmlns="http://www.w3.org/2000/svg" width="281" height="224" fill="none" viewBox="0 0 281 224"><mask id="path-1-outside-1_26_2047" width="65.723" height="65.723" x="164.362" y="162.272" fill="#000" maskUnits="userSpaceOnUse"><rect width="65.723" height="65.723" x="164.362" y="162.272" fill="#fff"/><path d="M187.317 198.594C187.7 199.116 188.235 199.506 188.85 199.709C189.464 199.912 190.126 199.918 190.745 199.727C191.369 199.523 191.919 199.137 192.324 198.619L194.567 195.571C195.1 194.854 195.794 194.272 196.592 193.871C197.39 193.47 198.271 193.261 199.165 193.261L203.017 193.283C203.669 193.268 204.3 193.047 204.82 192.653C205.341 192.259 205.724 191.712 205.916 191.088C206.109 190.464 206.1 189.796 205.892 189.177C205.684 188.559 205.286 188.021 204.756 187.641L201.7 185.398C200.983 184.865 200.4 184.172 199.999 183.373C199.597 182.575 199.388 181.694 199.387 180.8L199.407 176.954C199.394 176.313 199.181 175.691 198.799 175.176C198.416 174.661 197.883 174.277 197.273 174.079C196.656 173.871 195.99 173.863 195.368 174.055C194.747 174.247 194.201 174.629 193.809 175.148L191.512 178.26C190.985 178.952 190.308 179.516 189.533 179.91C188.757 180.304 187.903 180.518 187.033 180.535L183.189 180.508C182.542 180.52 181.914 180.735 181.394 181.121C180.874 181.508 180.487 182.046 180.288 182.663C180.088 183.279 180.086 183.943 180.282 184.56C180.477 185.178 180.861 185.719 181.378 186.109L184.426 188.353C185.143 188.89 185.725 189.587 186.126 190.388C186.528 191.189 186.737 192.072 186.738 192.968L186.718 196.8C186.729 197.443 186.94 198.071 187.322 198.592M199.286 216.849C199.619 217.3 200.083 217.638 200.615 217.816C201.154 217.987 201.734 217.987 202.273 217.816C202.813 217.645 203.287 217.311 203.629 216.86L205.232 214.684C205.567 214.231 206.005 213.863 206.508 213.611C207.012 213.358 207.568 213.227 208.131 213.228L210.871 213.241C211.44 213.235 211.993 213.05 212.45 212.71C212.908 212.371 213.246 211.896 213.417 211.353C213.588 210.81 213.583 210.227 213.402 209.687C213.222 209.147 212.875 208.678 212.412 208.347L210.23 206.738C209.779 206.402 209.413 205.966 209.16 205.464C208.908 204.962 208.775 204.408 208.772 203.846L208.787 201.1C208.782 200.533 208.599 199.983 208.264 199.526C207.929 199.069 207.458 198.73 206.919 198.555C206.38 198.381 205.8 198.38 205.261 198.554C204.722 198.728 204.251 199.067 203.915 199.523L202.315 201.701C201.985 202.148 201.557 202.513 201.063 202.768C200.569 203.022 200.024 203.16 199.468 203.17L196.715 203.156C196.296 203.162 195.883 203.266 195.511 203.459C195.139 203.653 194.817 203.93 194.57 204.27C194.324 204.609 194.16 205.001 194.091 205.415C194.023 205.829 194.052 206.253 194.177 206.654C194.345 207.207 194.682 207.692 195.139 208.039L197.32 209.64C197.771 209.978 198.138 210.418 198.39 210.923C198.642 211.428 198.773 211.984 198.772 212.549L198.76 215.296C198.769 215.855 198.952 216.397 199.283 216.848"/></mask><path fill="#FBC400" d="M187.317 198.594C187.7 199.116 188.235 199.506 188.85 199.709C189.464 199.912 190.126 199.918 190.745 199.727C191.369 199.523 191.919 199.137 192.324 198.619L194.567 195.571C195.1 194.854 195.794 194.272 196.592 193.871C197.39 193.47 198.271 193.261 199.165 193.261L203.017 193.283C203.669 193.268 204.3 193.047 204.82 192.653C205.341 192.259 205.724 191.712 205.916 191.088C206.109 190.464 206.1 189.796 205.892 189.177C205.684 188.559 205.286 188.021 204.756 187.641L201.7 185.398C200.983 184.865 200.4 184.172 199.999 183.373C199.597 182.575 199.388 181.694 199.387 180.8L199.407 176.954C199.394 176.313 199.181 175.691 198.799 175.176C198.416 174.661 197.883 174.277 197.273 174.079C196.656 173.871 195.99 173.863 195.368 174.055C194.747 174.247 194.201 174.629 193.809 175.148L191.512 178.26C190.985 178.952 190.308 179.516 189.533 179.91C188.757 180.304 187.903 180.518 187.033 180.535L183.189 180.508C182.542 180.52 181.914 180.735 181.394 181.121C180.874 181.508 180.487 182.046 180.288 182.663C180.088 183.279 180.086 183.943 180.282 184.56C180.477 185.178 180.861 185.719 181.378 186.109L184.426 188.353C185.143 188.89 185.725 189.587 186.126 190.388C186.528 191.189 186.737 192.072 186.738 192.968L186.718 196.8C186.729 197.443 186.94 198.071 187.322 198.592M199.286 216.849C199.619 217.3 200.083 217.638 200.615 217.816C201.154 217.987 201.734 217.987 202.273 217.816C202.813 217.645 203.287 217.311 203.629 216.86L205.232 214.684C205.567 214.231 206.005 213.863 206.508 213.611C207.012 213.358 207.568 213.227 208.131 213.228L210.871 213.241C211.44 213.235 211.993 213.05 212.45 212.71C212.908 212.371 213.246 211.896 213.417 211.353C213.588 210.81 213.583 210.227 213.402 209.687C213.222 209.147 212.875 208.678 212.412 208.347L210.23 206.738C209.779 206.402 209.413 205.966 209.16 205.464C208.908 204.962 208.775 204.408 208.772 203.846L208.787 201.1C208.782 200.533 208.599 199.983 208.264 199.526C207.929 199.069 207.458 198.73 206.919 198.555C206.38 198.381 205.8 198.38 205.261 198.554C204.722 198.728 204.251 199.067 203.915 199.523L202.315 201.701C201.985 202.148 201.557 202.513 201.063 202.768C200.569 203.022 200.024 203.16 199.468 203.17L196.715 203.156C196.296 203.162 195.883 203.266 195.511 203.459C195.139 203.653 194.817 203.93 194.57 204.27C194.324 204.609 194.16 205.001 194.091 205.415C194.023 205.829 194.052 206.253 194.177 206.654C194.345 207.207 194.682 207.692 195.139 208.039L197.32 209.64C197.771 209.978 198.138 210.418 198.39 210.923C198.642 211.428 198.773 211.984 198.772 212.549L198.76 215.296C198.769 215.855 198.952 216.397 199.283 216.848"/><path fill="#fff" d="M190.745 199.727L192.28 204.682L192.318 204.67L192.355 204.658L190.745 199.727ZM192.324 198.619L196.412 201.812L196.457 201.754L196.501 201.694L192.324 198.619ZM194.567 195.571L190.404 192.476L190.397 192.486L190.39 192.496L194.567 195.571ZM199.165 193.261L199.195 188.073L199.18 188.073L199.165 188.073L199.165 193.261ZM203.017 193.283L202.986 198.471L203.064 198.471L203.142 198.469L203.017 193.283ZM204.756 187.641L201.686 191.823L201.709 191.84L201.732 191.856L204.756 187.641ZM201.7 185.398L198.606 189.561L198.618 189.571L198.631 189.58L201.7 185.398ZM199.387 180.8L194.199 180.772L194.199 180.788L194.199 180.804L199.387 180.8ZM199.407 176.954L204.595 176.982L204.595 176.913L204.594 176.844L199.407 176.954ZM197.273 174.079L195.619 178.996L195.643 179.004L195.666 179.011L197.273 174.079ZM193.809 175.148L189.672 172.018L189.653 172.042L189.635 172.067L193.809 175.148ZM191.512 178.26L195.64 181.4L195.663 181.371L195.685 181.34L191.512 178.26ZM187.033 180.535L186.996 185.722L187.065 185.723L187.134 185.721L187.033 180.535ZM183.189 180.508L183.226 175.32L183.157 175.32L183.088 175.321L183.189 180.508ZM181.378 186.109L178.26 190.254L178.281 190.271L178.303 190.286L181.378 186.109ZM184.426 188.353L187.538 184.202L187.52 184.188L187.502 184.175L184.426 188.353ZM186.738 192.968L191.925 192.994L191.925 192.979L191.925 192.963L186.738 192.968ZM186.718 196.8L181.531 196.773L181.531 196.829L181.532 196.885L186.718 196.8ZM200.615 217.816L198.973 222.736L199.009 222.748L199.045 222.76L200.615 217.816ZM203.629 216.86L207.76 219.998L207.783 219.967L207.806 219.937L203.629 216.86ZM205.232 214.684L201.064 211.596L201.059 211.602L201.055 211.607L205.232 214.684ZM208.131 213.228L208.155 208.041L208.145 208.041L208.131 213.228ZM210.871 213.241L210.846 218.429L210.885 218.429L210.923 218.428L210.871 213.241ZM212.45 212.71L209.361 208.543L212.45 212.71ZM212.412 208.347L209.334 212.522L209.365 212.545L209.397 212.568L212.412 208.347ZM210.23 206.738L207.125 210.894L207.139 210.904L207.152 210.914L210.23 206.738ZM208.772 203.846L203.585 203.817L203.585 203.842L203.585 203.867L208.772 203.846ZM208.787 201.1L213.975 201.128L213.975 201.092L213.974 201.055L208.787 201.1ZM208.264 199.526L204.082 202.596L208.264 199.526ZM203.915 199.523L199.737 196.449L199.735 196.452L203.915 199.523ZM202.315 201.701L206.489 204.782L206.496 204.772L202.315 201.701ZM199.468 203.17L199.442 208.358L199.502 208.358L199.562 208.357L199.468 203.17ZM196.715 203.156L196.741 197.969L196.691 197.969L196.64 197.969L196.715 203.156ZM194.177 206.654L199.139 205.144L199.135 205.131L199.131 205.118L194.177 206.654ZM195.139 208.039L192.002 212.171L192.035 212.196L192.069 212.221L195.139 208.039ZM197.32 209.64L200.43 205.488L200.41 205.473L200.389 205.458L197.32 209.64ZM198.772 212.549L203.959 212.571L203.959 212.558L198.772 212.549ZM198.76 215.296L193.573 215.274L193.572 215.328L193.573 215.382L198.76 215.296ZM183.131 201.658C184.151 203.052 185.581 204.092 187.222 204.635L190.478 194.784C190.889 194.92 191.248 195.181 191.504 195.53L183.131 201.658ZM187.222 204.635C188.862 205.177 190.63 205.193 192.28 204.682L189.209 194.772C189.622 194.644 190.066 194.648 190.478 194.784L187.222 204.635ZM192.355 204.658C193.96 204.134 195.373 203.143 196.412 201.812L188.235 195.426C188.466 195.131 188.779 194.912 189.134 194.796L192.355 204.658ZM196.501 201.694L198.745 198.646L190.39 192.496L188.146 195.544L196.501 201.694ZM198.73 198.666C198.781 198.599 198.846 198.544 198.921 198.506L194.263 189.236C192.741 190 191.42 191.11 190.404 192.476L198.73 198.666ZM198.921 198.506C198.997 198.468 199.08 198.448 199.164 198.448L199.165 188.073C197.463 188.073 195.784 188.471 194.263 189.236L198.921 198.506ZM199.134 198.448L202.986 198.471L203.047 188.096L199.195 188.073L199.134 198.448ZM203.142 198.469C204.882 198.427 206.564 197.839 207.952 196.789L201.689 188.517C202.036 188.255 202.456 188.108 202.891 188.097L203.142 198.469ZM207.952 196.789C209.339 195.739 210.361 194.279 210.874 192.616L200.959 189.56C201.087 189.144 201.343 188.78 201.689 188.517L207.952 196.789ZM210.874 192.616C211.386 190.953 211.363 189.171 210.808 187.522L200.976 190.833C200.837 190.421 200.831 189.975 200.959 189.56L210.874 192.616ZM210.808 187.522C210.253 185.873 209.194 184.44 207.78 183.426L201.732 191.856C201.379 191.603 201.114 191.245 200.976 190.833L210.808 187.522ZM207.825 183.459L204.77 181.216L198.631 189.58L201.686 191.823L207.825 183.459ZM204.795 181.235C204.727 181.184 204.671 181.118 204.633 181.042L195.365 185.705C196.13 187.225 197.24 188.546 198.606 189.561L204.795 181.235ZM204.633 181.042C204.594 180.965 204.574 180.881 204.574 180.796L194.199 180.804C194.201 182.506 194.6 184.184 195.365 185.705L204.633 181.042ZM204.574 180.828L204.595 176.982L194.22 176.927L194.199 180.772L204.574 180.828ZM204.594 176.844C204.557 175.127 203.988 173.463 202.964 172.084L194.633 178.268C194.374 177.919 194.23 177.499 194.221 177.064L204.594 176.844ZM202.964 172.084C201.94 170.705 200.512 169.678 198.879 169.146L195.666 179.011C195.253 178.877 194.892 178.617 194.633 178.268L202.964 172.084ZM198.926 169.162C197.279 168.608 195.499 168.585 193.839 169.098L196.898 179.012C196.481 179.14 196.033 179.135 195.619 178.996L198.926 169.162ZM193.839 169.098C192.178 169.61 190.72 170.632 189.672 172.018L197.945 178.278C197.682 178.626 197.315 178.883 196.898 179.012L193.839 169.098ZM189.635 172.067L187.338 175.179L195.685 181.34L197.982 178.228L189.635 172.067ZM187.383 175.119C187.33 175.189 187.262 175.246 187.184 175.285L191.882 184.536C193.355 183.787 194.64 182.715 195.64 181.4L187.383 175.119ZM187.184 175.285C187.105 175.325 187.019 175.347 186.932 175.348L187.134 185.721C188.786 185.689 190.409 185.284 191.882 184.536L187.184 175.285ZM187.069 175.347L183.226 175.32L183.153 185.695L186.996 185.722L187.069 175.347ZM183.088 175.321C181.361 175.355 179.687 175.927 178.301 176.957L184.487 185.286C184.14 185.543 183.722 185.686 183.291 185.694L183.088 175.321ZM178.301 176.957C176.914 177.987 175.883 179.423 175.352 181.067L185.223 184.259C185.091 184.669 184.833 185.028 184.487 185.286L178.301 176.957ZM175.352 181.067C174.82 182.711 174.815 184.479 175.336 186.126L185.227 182.995C185.358 183.406 185.356 183.848 185.223 184.259L175.352 181.067ZM175.336 186.126C175.857 187.773 176.879 189.216 178.26 190.254L184.497 181.963C184.842 182.223 185.097 182.583 185.227 182.995L175.336 186.126ZM178.303 190.286L181.351 192.53L187.502 184.175L184.454 181.931L178.303 190.286ZM181.315 192.504C181.388 192.558 181.447 192.629 181.488 192.711L190.765 188.065C190.003 186.544 188.898 185.222 187.538 184.202L181.315 192.504ZM181.488 192.711C181.529 192.792 181.55 192.882 181.55 192.973L191.925 192.963C191.924 191.262 191.526 189.585 190.765 188.065L181.488 192.711ZM181.55 192.942L181.531 196.773L191.906 196.826L191.925 192.994L181.55 192.942ZM181.532 196.885C181.56 198.604 182.122 200.272 183.137 201.657L191.507 195.526C191.758 195.869 191.898 196.282 191.905 196.714L181.532 196.885ZM195.11 219.926C196.077 221.239 197.426 222.22 198.973 222.736L202.257 212.895C202.739 213.056 203.161 213.362 203.463 213.772L195.11 219.926ZM199.045 222.76C200.605 223.255 202.28 223.256 203.841 222.761L200.706 212.871C201.187 212.718 201.704 212.719 202.185 212.871L199.045 222.76ZM203.841 222.761C205.401 222.267 206.77 221.301 207.76 219.998L199.498 213.723C199.803 213.321 200.225 213.023 200.706 212.871L203.841 222.761ZM207.806 219.937L209.409 217.76L201.055 211.607L199.452 213.784L207.806 219.937ZM209.4 217.772C209.252 217.972 209.058 218.135 208.835 218.247L204.181 208.974C202.951 209.592 201.883 210.49 201.064 211.596L209.4 217.772ZM208.835 218.247C208.613 218.359 208.367 218.417 208.117 218.416L208.145 208.041C206.769 208.037 205.411 208.357 204.181 208.974L208.835 218.247ZM208.107 218.416L210.846 218.429L210.895 208.054L208.155 208.041L208.107 218.416ZM210.923 218.428C212.587 218.411 214.203 217.869 215.54 216.878L209.361 208.543C209.783 208.231 210.293 208.059 210.818 208.054L210.923 218.428ZM215.54 216.878C216.876 215.887 217.865 214.498 218.365 212.911L208.469 209.795C208.627 209.294 208.939 208.856 209.361 208.543L215.54 216.878ZM218.365 212.911C218.865 211.324 218.85 209.619 218.322 208.041L208.483 211.332C208.316 210.834 208.311 210.296 208.469 209.795L218.365 212.911ZM218.322 208.041C217.794 206.463 216.781 205.093 215.427 204.125L209.397 212.568C208.969 212.263 208.649 211.83 208.483 211.332L218.322 208.041ZM215.49 204.171L213.308 202.563L207.152 210.914L209.334 212.522L215.49 204.171ZM213.334 202.582C213.528 202.727 213.685 202.914 213.793 203.129L204.528 207.798C205.142 209.017 206.031 210.077 207.125 210.894L213.334 202.582ZM213.793 203.129C213.902 203.345 213.959 203.583 213.96 203.824L203.585 203.867C203.591 205.233 203.913 206.578 204.528 207.798L213.793 203.129ZM213.96 203.874L213.975 201.128L203.6 201.072L203.585 203.817L213.96 203.874ZM213.974 201.055C213.96 199.4 213.426 197.791 212.446 196.456L204.082 202.596C203.773 202.174 203.604 201.667 203.6 201.144L213.974 201.055ZM212.446 196.456C211.466 195.122 210.091 194.129 208.516 193.62L205.322 203.491C204.825 203.33 204.391 203.017 204.082 202.596L212.446 196.456ZM208.516 193.62C206.941 193.11 205.245 193.109 203.67 193.617L206.852 203.492C206.355 203.652 205.82 203.652 205.322 203.491L208.516 193.62ZM203.67 193.617C202.094 194.125 200.718 195.115 199.737 196.449L208.093 202.598C207.784 203.019 207.349 203.331 206.852 203.492L203.67 193.617ZM199.735 196.452L198.135 198.63L206.496 204.772L208.096 202.595L199.735 196.452ZM198.142 198.62C198.285 198.426 198.47 198.268 198.684 198.158L203.442 207.378C204.643 206.758 205.686 205.87 206.489 204.782L198.142 198.62ZM198.684 198.158C198.898 198.047 199.135 197.988 199.375 197.983L199.562 208.357C200.913 208.333 202.241 207.997 203.442 207.378L198.684 198.158ZM199.494 197.983L196.741 197.969L196.689 208.344L199.442 208.358L199.494 197.983ZM196.64 197.969C195.414 197.987 194.21 198.29 193.122 198.855L197.901 208.064C197.557 208.242 197.177 208.338 196.79 208.343L196.64 197.969ZM193.122 198.855C192.033 199.42 191.092 200.23 190.372 201.222L198.768 207.317C198.541 207.63 198.244 207.886 197.901 208.064L193.122 198.855ZM190.372 201.222C189.652 202.215 189.173 203.361 188.973 204.57L199.21 206.26C199.147 206.642 198.996 207.004 198.768 207.317L190.372 201.222ZM188.973 204.57C188.774 205.78 188.859 207.019 189.222 208.19L199.131 205.118C199.246 205.487 199.273 205.878 199.21 206.26L188.973 204.57ZM189.214 208.164C189.697 209.753 190.668 211.158 192.002 212.171L198.275 203.907C198.695 204.226 198.993 204.662 199.139 205.144L189.214 208.164ZM192.069 212.221L194.25 213.822L200.389 205.458L198.209 203.857L192.069 212.221ZM194.209 213.792C194.015 213.646 193.857 213.457 193.749 213.24L203.031 208.605C202.418 207.378 201.528 206.311 200.43 205.488L194.209 213.792ZM193.749 213.24C193.64 213.022 193.584 212.782 193.584 212.539L203.959 212.558C203.962 211.186 203.644 209.833 203.031 208.605L193.749 213.24ZM193.584 212.527L193.573 215.274L203.948 215.318L203.959 212.571L193.584 212.527ZM193.573 215.382C193.6 217.016 194.135 218.601 195.102 219.918L203.465 213.778C203.77 214.193 203.938 214.694 203.947 215.209L193.573 215.382Z" mask="url(#path-1-outside-1_26_2047)"/><path fill="#FBC400" stroke="#fff" stroke-width="5.91" d="M33.4847 44.4646C33.01 44.7439 32.6056 45.1283 32.3025 45.5883C32.0015 46.0501 31.81 46.5762 31.7434 47.1252L31.3022 51.1188L31.2978 51.1586L31.2923 51.1982C31.1263 52.4018 30.6003 53.5192 29.7927 54.4121L29.7825 54.4234L29.7722 54.4346C28.9472 55.3279 27.8647 55.9423 26.6748 56.1924C25.4848 56.4425 24.2465 56.316 23.1318 55.8304M33.4847 44.4646L24.3118 53.1214M33.4847 44.4646L37.0161 42.4509L37.0555 42.4284L37.0942 42.4048C37.8668 41.9322 38.5198 41.2876 39.0022 40.521C39.4836 39.756 39.7821 38.8903 39.8745 37.9912C39.955 37.2201 39.8815 36.4407 39.6583 35.6982C39.4347 34.9543 39.0652 34.2623 38.5714 33.6627C38.0776 33.063 37.4693 32.5676 36.7821 32.2055C36.1059 31.8491 35.3665 31.6286 34.6057 31.5565L30.6303 31.119C30.0824 31.0539 29.5571 30.8627 29.0954 30.5604C28.6342 30.2585 28.2492 29.854 27.9704 29.3785L25.9539 25.8527L25.9336 25.8171L25.9122 25.782C25.3982 24.9386 24.6795 24.2386 23.8229 23.7469C22.9663 23.2552 21.9993 22.9877 21.0118 22.9693C20.0242 22.9509 19.048 23.1821 18.1737 23.6415C17.3003 24.1004 16.5567 24.7721 16.0118 25.5946M33.4847 44.4646L12.9458 34.7989M23.1318 55.8304L24.3118 53.1214M23.1318 55.8304C23.1333 55.8311 23.1349 55.8318 23.1365 55.8325L24.3118 53.1214M23.1318 55.8304C22.0233 55.3487 21.0844 54.5333 20.4532 53.4898L20.434 53.4581L20.4156 53.4259L18.3931 49.8844L20.9565 48.4146M24.3118 53.1214C23.7603 52.8823 23.2941 52.4773 22.9815 51.9605L20.9565 48.4146M20.9565 48.4146L18.3906 49.88L18.392 49.8825M20.9565 48.4146C20.4502 47.5315 19.7437 46.7795 18.8939 46.2191C18.0442 45.6586 17.0748 45.3053 16.0636 45.1876M18.392 49.8825L12.0552 44.7509L16.0636 45.1876M18.392 49.8825C18.1157 49.4012 17.7304 48.9913 17.2671 48.6858C16.8058 48.3815 16.2799 48.1891 15.7312 48.1237M18.392 49.8825L12.9458 34.7989M16.0636 45.1876L15.7219 48.1226C15.725 48.123 15.7281 48.1233 15.7312 48.1237M16.0636 45.1876L15.7436 48.1251L15.7312 48.1237M15.7312 48.1237L11.7352 47.6884L11.7121 47.6859L11.689 47.683C10.4639 47.53 9.31798 46.9948 8.41313 46.1553L8.40307 46.146L8.40309 46.146C7.7441 45.5288 7.23582 44.7685 6.91753 43.9236C6.59923 43.0788 6.47945 42.172 6.56743 41.2735L6.56887 41.2588L6.57045 41.2441C6.66688 40.3514 6.96523 39.4923 7.44289 38.732C7.92056 37.9716 8.565 37.33 9.32741 36.8556L9.37796 36.8242L9.42974 36.7948L12.9458 34.7989M12.9458 34.7989C12.9381 34.8036 12.9303 34.8083 12.9225 34.8129L14.4366 37.3504L12.9779 34.7807L12.9458 34.7989ZM12.9458 34.7989C13.3979 34.5245 13.7826 34.1519 14.0714 33.7087C14.3626 33.2619 14.5488 32.755 14.616 32.2261M14.616 32.2261L14.6138 32.2455L17.5506 32.5723L14.6178 32.2117C14.6172 32.2165 14.6166 32.2213 14.616 32.2261ZM14.616 32.2261L15.0685 28.1591L15.0711 28.1359L15.0741 28.1127C15.1887 27.2123 15.5096 26.3506 16.0118 25.5946M16.0118 25.5946C16.0112 25.5955 16.0106 25.5964 16.0099 25.5973L18.4741 27.2281L16.0136 25.5918C16.013 25.5927 16.0124 25.5936 16.0118 25.5946Z"/><rect width="153.889" height="116.795" x="95.571" y="21.86" fill="#FFC793" rx="55.641" transform="rotate(8.81049 95.5706 21.8599)"/><path fill="#C29469" d="M126.781 68.7209C127.376 67.6633 128.667 67.2159 129.789 67.6781L146.403 74.5219C148.814 75.5149 149.865 78.3527 148.683 80.6765V80.6765C147.445 83.1109 144.332 83.8741 142.108 82.2881L127.48 71.8537C126.481 71.1412 126.18 69.7902 126.781 68.7209V68.7209Z"/><path fill="#C29469" d="M201.896 80.9906C202.103 82.1864 201.385 83.3485 200.223 83.699L183.021 88.8893C180.525 89.6424 177.917 88.1067 177.365 85.5588V85.5588C176.787 82.8896 178.719 80.331 181.444 80.1558L199.375 79.0032C200.6 78.9245 201.687 79.7815 201.896 80.9906V80.9906Z"/><rect width="53.685" height="36.091" x="133.869" y="92.217" fill="#fff" rx="18.046" transform="rotate(8.81049 133.869 92.217)"/><path fill="#2B2323" fill-rule="evenodd" d="M136.483 116.171C135.935 114.488 137.511 113.071 139.261 113.343V113.343C140.443 113.526 141.333 114.465 141.867 115.536C142.869 117.541 144.795 119.047 147.179 119.416C149.563 119.786 151.854 118.933 153.416 117.326C154.25 116.468 155.382 115.841 156.564 116.025V116.025C158.314 116.296 159.388 118.123 158.355 119.561C155.717 123.238 151.154 125.331 146.377 124.591C141.599 123.85 137.884 120.474 136.483 116.171Z" clip-rule="evenodd"/><path fill="#2B2323" fill-rule="evenodd" d="M177.178 122.479C178.211 121.04 177.137 119.213 175.387 118.942V118.942C174.205 118.759 173.073 119.385 172.239 120.243C170.677 121.851 168.386 122.703 166.002 122.334C163.618 121.964 161.693 120.458 160.691 118.453C160.156 117.383 159.266 116.443 158.084 116.26V116.26C156.334 115.989 154.758 117.405 155.306 119.089C156.708 123.391 160.423 126.768 165.2 127.508C169.978 128.249 174.54 126.155 177.178 122.479Z" clip-rule="evenodd"/><path fill="#2B2323" d="M156.424 106.03C157.769 104.358 160.419 104.769 161.194 106.769L164.138 114.364C164.914 116.364 163.233 118.453 161.113 118.125L153.064 116.877C150.944 116.549 149.975 114.048 151.319 112.377L156.424 106.03Z"/><path fill="#FFC793" d="M227.809 29.9348C232.517 28.3851 237.316 32.0357 237.079 36.986L235.892 61.7985C235.62 67.4834 229.083 70.5316 224.553 67.0859L202.145 50.0408C197.615 46.5951 198.808 39.4819 204.214 37.7023L227.809 29.9348Z"/><path fill="#FF9385" d="M224.875 35.6364C228.739 34.0966 232.851 37.2248 232.398 41.3587L230.732 56.5728C230.265 60.8352 225.325 62.9571 221.913 60.3611L209.361 50.8137C205.949 48.2177 206.675 42.8907 210.658 41.3031L224.875 35.6364Z"/><path fill="#FFC793" d="M111.497 14.5797C112.584 9.74449 118.181 7.50064 122.307 10.2456L142.99 24.0044C147.729 27.1567 146.988 34.3311 141.706 36.4491L115.574 46.9262C110.291 49.0441 104.799 44.3684 106.048 38.8156L111.497 14.5797Z"/><path fill="#FF9385" d="M114.883 20.0248C115.546 15.9192 120.341 13.9964 123.656 16.5075L135.857 25.7487C139.275 28.3378 138.559 33.6663 134.579 35.262L119.942 41.1305C115.962 42.7262 111.764 39.3678 112.446 35.1346L114.883 20.0248Z"/><rect width="31.079" height="23.058" x="222.963" y="99.939" fill="#FFC793" rx="11.529" transform="rotate(8.81049 222.963 99.939)"/><rect width="28.572" height="23.058" fill="#FFC793" rx="11.529" transform="matrix(-0.9882 -0.153167 -0.153167 0.9882 102.481 78.7285)"/><rect width="26.066" height="11.529" x="232.813" y="118.205" fill="#FFC793" rx="5.765" transform="rotate(8.81049 232.813 118.205)"/><rect width="24.061" height="11.529" fill="#FFC793" rx="5.765" transform="matrix(-0.9882 -0.153167 -0.153167 0.9882 88.5544 93.3096)"/><rect width="30.577" height="22.056" x="210.788" y="116.313" fill="#FFC793" rx="11.028" transform="rotate(8.81049 210.788 116.313)"/><rect width="28.071" height="24.562" fill="#FFC793" rx="12.281" transform="matrix(-0.9882 -0.153167 -0.153167 0.9882 106.652 97.6365)"/><rect width="12.53" height="13.227" x="185.929" y="90.141" fill="#2B2323" rx="6.265" transform="rotate(8.81049 185.929 90.1411)"/><rect width="12.53" height="13.227" x="125.993" y="80.851" fill="#2B2323" rx="6.265" transform="rotate(8.81049 125.993 80.8511)"/><rect width="55.85" height="75.157" x=".556" y="139.234" fill="#84CD78" rx="12.411" transform="rotate(-23.0796 0.555664 139.234)"/><rect width="55.85" height="75.157" x="44.324" y="120.584" fill="#84CD78" rx="12.411" transform="rotate(-23.0796 44.3235 120.584)"/><rect width="51.024" height="65.504" x="3.993" y="141.113" fill="#DAC9D9" rx="8.455" transform="rotate(-23.0796 3.99268 141.113)"/><rect width="51.024" height="65.504" x="47.739" y="122.286" fill="#DAC9D9" rx="8.455" transform="rotate(-23.0796 47.7395 122.286)"/><rect width="51.024" height="65.504" x="6.89" y="141.78" fill="#FCF3FC" rx="8.455" transform="rotate(-23.0796 6.89014 141.78)"/><rect width="51.024" height="65.504" x="46.851" y="124.753" fill="#FCF3FC" rx="8.455" transform="rotate(-23.0796 46.8513 124.753)"/><rect width="26.201" height="3.448" x="14.748" y="149.676" fill="#C0BABA" rx="1.724" transform="rotate(-23.0796 14.748 149.676)"/><rect width="5.516" height="3.448" x="40.755" y="138.593" fill="#C0BABA" rx="1.724" transform="rotate(-23.0796 40.7554 138.593)"/><rect width="3.448" height="3.448" x="47.733" y="135.62" fill="#C0BABA" rx="1.724" transform="rotate(-23.0796 47.7329 135.62)"/><rect width="26.201" height="3.448" fill="#C0BABA" rx="1.724" transform="matrix(-0.919961 0.392009 0.392009 0.919961 54.4185 142.515)"/><rect width="5.516" height="3.448" fill="#C0BABA" rx="1.724" transform="matrix(-0.919961 0.392009 0.392009 0.919961 28.4111 153.597)"/><rect width="3.448" height="3.448" fill="#C0BABA" rx="1.724" transform="matrix(-0.919961 0.392009 0.392009 0.919961 21.4336 156.57)"/><rect width="39.302" height="3.448" fill="#C0BABA" rx="1.724" transform="matrix(-0.919961 0.392009 0.392009 0.919961 57.9321 150.761)"/><rect width="26.201" height="3.448" fill="#C0BABA" rx="1.724" transform="matrix(-0.919961 0.392009 0.392009 0.919961 61.446 159.007)"/><rect width="5.516" height="3.448" fill="#C0BABA" rx="1.724" transform="matrix(-0.919961 0.392009 0.392009 0.919961 35.439 170.089)"/><rect width="3.448" height="3.448" fill="#C0BABA" rx="1.724" transform="matrix(-0.919961 0.392009 0.392009 0.919961 28.4614 173.062)"/><rect width="26.201" height="3.448" x="28.803" y="182.66" fill="#C0BABA" rx="1.724" transform="rotate(-23.0796 28.8035 182.66)"/><rect width="5.516" height="3.448" x="54.811" y="171.578" fill="#C0BABA" rx="1.724" transform="rotate(-23.0796 54.8108 171.578)"/><rect width="3.448" height="3.448" x="61.788" y="168.605" fill="#C0BABA" rx="1.724" transform="rotate(-23.0796 61.7883 168.605)"/><rect width="26.201" height="3.448" x="112.417" y="159.024" fill="#C0BABA" rx="1.724" transform="rotate(156.92 112.417 159.024)"/><rect width="5.516" height="3.448" x="86.41" y="170.106" fill="#C0BABA" rx="1.724" transform="rotate(156.92 86.4102 170.106)"/><rect width="3.448" height="3.448" x="79.432" y="173.079" fill="#C0BABA" rx="1.724" transform="rotate(156.92 79.4324 173.079)"/><rect width="26.201" height="3.448" fill="#C0BABA" rx="1.724" transform="matrix(0.919961 -0.392009 -0.392009 -0.919961 72.7471 166.184)"/><rect width="5.516" height="3.448" fill="#C0BABA" rx="1.724" transform="matrix(0.919961 -0.392009 -0.392009 -0.919961 98.7542 155.102)"/><rect width="3.448" height="3.448" fill="#C0BABA" rx="1.724" transform="matrix(0.919961 -0.392009 -0.392009 -0.919961 105.732 152.129)"/><rect width="39.302" height="3.448" fill="#C0BABA" rx="1.724" transform="matrix(0.919961 -0.392009 -0.392009 -0.919961 69.2332 157.938)"/><rect width="26.201" height="3.448" fill="#C0BABA" rx="1.724" transform="matrix(0.919961 -0.392009 -0.392009 -0.919961 65.7192 149.692)"/><rect width="5.516" height="3.448" fill="#C0BABA" rx="1.724" transform="matrix(0.919961 -0.392009 -0.392009 -0.919961 91.7266 138.61)"/><rect width="3.448" height="3.448" fill="#C0BABA" rx="1.724" transform="matrix(0.919961 -0.392009 -0.392009 -0.919961 98.7041 135.636)"/><rect width="26.201" height="3.448" x="98.362" y="126.039" fill="#C0BABA" rx="1.724" transform="rotate(156.92 98.3618 126.039)"/><rect width="5.516" height="3.448" x="72.355" y="137.121" fill="#C0BABA" rx="1.724" transform="rotate(156.92 72.3547 137.121)"/><rect width="3.448" height="3.448" x="65.377" y="140.094" fill="#C0BABA" rx="1.724" transform="rotate(156.92 65.3772 140.094)"/><rect width="26.201" height="3.448" x="94.848" y="117.793" fill="#C0BABA" rx="1.724" transform="rotate(156.92 94.8481 117.793)"/><rect width="11.032" height="3.448" x="68.841" y="128.875" fill="#C0BABA" rx="1.724" transform="rotate(156.92 68.8408 128.875)"/></svg>